<svg width="900" height="900" viewBox="0 0 900 900" fill="none" xmlns="http://www.w3.org/2000/svg">
  <defs>
    <linearGradient id="bg" x1="120" y1="80" x2="860" y2="820" gradientUnits="userSpaceOnUse">
      <stop stop-color="#2563EB" stop-opacity="0.22" />
      <stop offset="0.5" stop-color="#60A5FA" stop-opacity="0.14" />
      <stop offset="1" stop-color="#22C55E" stop-opacity="0.08" />
    </linearGradient>
    <radialGradient id="glow" cx="0" cy="0" r="1" gradientUnits="userSpaceOnUse" gradientTransform="translate(450 430) rotate(90) scale(380)">
      <stop stop-color="#2563EB" stop-opacity="0.35" />
      <stop offset="1" stop-color="#2563EB" stop-opacity="0" />
    </radialGradient>
    <filter id="soft" x="-60" y="-60" width="1020" height="1020" filterUnits="userSpaceOnUse" color-interpolation-filters="sRGB">
      <feGaussianBlur stdDeviation="18" />
    </filter>
  </defs>

  <rect x="30" y="30" width="840" height="840" rx="56" fill="url(#bg)" />
  <circle cx="450" cy="430" r="340" fill="url(#glow)" />

  <g filter="url(#soft)">
    <path d="M228 520c78-148 176-224 294-230 118-6 214 60 288 198" stroke="#2563EB" stroke-opacity="0.32" stroke-width="22" stroke-linecap="round" />
    <path d="M240 650c106-70 214-102 322-94 108 8 196 52 264 132" stroke="#60A5FA" stroke-opacity="0.26" stroke-width="18" stroke-linecap="round" />
    <path d="M250 370c72 22 140 64 204 126 64 62 106 132 126 210" stroke="#22C55E" stroke-opacity="0.16" stroke-width="14" stroke-linecap="round" />
  </g>

  <g opacity="0.7">
    <circle cx="265" cy="340" r="8" fill="#60A5FA" />
    <circle cx="650" cy="300" r="7" fill="#2563EB" />
    <circle cx="690" cy="610" r="6" fill="#22C55E" />
    <circle cx="330" cy="680" r="6" fill="#2563EB" />
  </g>
</svg>
